<svg xmlns="http://www.w3.org/2000/svg" xmlns:xlink="http://www.w3.org/1999/xlink" version="1.1" width="1000" height="1000" viewBox="0 0 1000 1000" xml:space="preserve">
<desc>Created with Fabric.js 3.5.0</desc>
<defs>
</defs>
<rect x="0" y="0" width="100%" height="100%" fill="#222222"/>
<g transform="matrix(41.5793 0 0 44.1024 501.0924 494.9558)" id="433589">
<path style="stroke: none; stroke-width: 1; stroke-dasharray: none; stroke-linecap: butt; stroke-dashoffset: 0; stroke-linejoin: miter; stroke-miterlimit: 4; is-custom-font: none; font-file-url: none; fill: rgb(212,212,212); fill-rule: nonzero; opacity: 1;" vector-effect="non-scaling-stroke" transform=" translate(-12.0001, -12.0001)" d="M 23.996 7.462 c -0.056 0.837 -0.257 2.135 -0.716 3.85 c -0.995 3.715 -4.27 10.874 -10.42 9.227 c -6.15 -1.65 -5.407 -9.487 -4.412 -13.201 c 0.46 -1.716 0.934 -2.94 1.305 -3.694 c 0.42 -0.853 0.846 -0.289 1.815 0.523 c 0.684 0.573 2.41 1.791 5.011 2.488 c 2.601 0.697 4.706 0.506 5.583 0.352 c 1.245 -0.219 1.897 -0.494 1.834 0.455 Z m -9.807 3.863 s -0.127 -1.819 -1.773 -2.286 c -1.644 -0.467 -2.613 1.04 -2.613 1.04 Z m 4.058 4.539 l -7.769 -2.172 s 0.446 2.306 3.338 3.153 c 2.862 0.836 4.43 -0.98 4.43 -0.981 Z m 2.701 -2.51 s -0.13 -1.818 -1.773 -2.286 c -1.644 -0.469 -2.612 1.038 -2.612 1.038 Z M 8.57 18.23 c -4.749 1.279 -7.261 -4.224 -8.021 -7.08 C 0.197 9.831 0.044 8.832 0.003 8.188 c -0.047 -0.73 0.455 -0.52 1.415 -0.354 c 0.677 0.118 2.3 0.261 4.308 -0.28 a 11.28 11.28 0 0 0 2.41 -0.956 c -0.058 0.197 -0.114 0.4 -0.17 0.61 c -0.433 1.618 -0.827 4.055 -0.632 6.426 c -1.976 0.732 -2.267 2.423 -2.267 2.423 l 2.524 -0.715 c 0.227 1.002 0.6 1.987 1.15 2.838 a 5.914 5.914 0 0 1 -0.171 0.049 Z m -4.188 -6.298 c 1.265 -0.333 1.363 -1.631 1.363 -1.631 l -3.374 0.888 s 0.745 1.076 2.01 0.743 Z" stroke-linecap="round"/>
</g>
</svg>